<svg width="25" height="25" viewBox="0 0 25 25" fill="none" xmlns="http://www.w3.org/2000/svg">
<path d="M23.2541 0.416748H1.74579C1.39328 0.416748 1.0552 0.556785 0.80593 0.806052C0.556663 1.05532 0.416626 1.3934 0.416626 1.74591V23.2542C0.416626 23.4288 0.451006 23.6016 0.517803 23.7629C0.5846 23.9242 0.682505 24.0707 0.80593 24.1941C0.929355 24.3175 1.07588 24.4154 1.23714 24.4822C1.3984 24.549 1.57124 24.5834 1.74579 24.5834H13.3216V15.2188H10.18V11.5938H13.3216V8.87508C13.2565 8.23679 13.3319 7.59198 13.5424 6.9859C13.7529 6.37981 14.0935 5.82712 14.5402 5.36658C14.9869 4.90604 15.529 4.54881 16.1284 4.31995C16.7278 4.09109 17.37 3.99614 18.01 4.04175C18.9504 4.03596 19.8905 4.08437 20.8254 4.18675V7.44925H18.9041C17.3816 7.44925 17.0916 8.17425 17.0916 9.2255V11.5576H20.7166L20.2454 15.1826H17.0916V24.5834H23.2541C23.4287 24.5834 23.6015 24.549 23.7628 24.4822C23.924 24.4154 24.0706 24.3175 24.194 24.1941C24.3174 24.0707 24.4153 23.9242 24.4821 23.7629C24.5489 23.6016 24.5833 23.4288 24.5833 23.2542V1.74591C24.5833 1.57137 24.5489 1.39853 24.4821 1.23726C24.4153 1.076 24.3174 0.929477 24.194 0.806052C24.0706 0.682628 23.924 0.584722 23.7628 0.517925C23.6015 0.451128 23.4287 0.416748 23.2541 0.416748Z" fill="white"/>
</svg>
