<svg width="28" height="28" viewBox="0 0 28 28" fill="none" xmlns="http://www.w3.org/2000/svg">
<path d="M14 10.6934C13.346 10.6934 12.7067 10.8873 12.1629 11.2507C11.6191 11.614 11.1953 12.1305 10.945 12.7347C10.6947 13.3389 10.6292 14.0037 10.7568 14.6452C10.8844 15.2866 11.1993 15.8758 11.6618 16.3382C12.1242 16.8007 12.7134 17.1156 13.3549 17.2432C13.9963 17.3708 14.6612 17.3053 15.2654 17.055C15.8696 16.8048 16.386 16.3809 16.7494 15.8372C17.1127 15.2934 17.3066 14.6541 17.3066 14.0001C17.3066 13.5658 17.2211 13.1359 17.0549 12.7347C16.8887 12.3335 16.6452 11.969 16.3381 11.6619C16.0311 11.3549 15.6665 11.1113 15.2654 10.9451C14.8642 10.7789 14.4342 10.6934 14 10.6934ZM27.24 7.42675C27.2329 6.39709 27.0433 5.37684 26.68 4.41341C26.4123 3.70843 25.9983 3.06821 25.465 2.535C24.9318 2.00178 24.2916 1.5877 23.5866 1.32008C22.6232 0.9567 21.6029 0.767096 20.5733 0.760081C18.8533 0.666748 18.3466 0.666748 14 0.666748C9.65329 0.666748 9.14663 0.666748 7.42663 0.760081C6.39697 0.767096 5.37672 0.9567 4.41329 1.32008C3.70831 1.5877 3.06808 2.00178 2.53487 2.535C2.00166 3.06821 1.58758 3.70843 1.31996 4.41341C0.956578 5.37684 0.766974 6.39709 0.759959 7.42675C0.666626 9.14675 0.666626 9.65341 0.666626 14.0001C0.666626 18.3467 0.666626 18.8534 0.759959 20.5734C0.774311 21.6067 0.963658 22.6301 1.31996 23.6001C1.5864 24.3018 2.00013 24.9384 2.53329 25.4667C3.06422 26.0032 3.70581 26.4172 4.41329 26.6801C5.37672 27.0435 6.39697 27.2331 7.42663 27.2401C9.14663 27.3334 9.65329 27.3334 14 27.3334C18.3466 27.3334 18.8533 27.3334 20.5733 27.2401C21.6029 27.2331 22.6232 27.0435 23.5866 26.6801C24.2941 26.4172 24.9357 26.0032 25.4666 25.4667C25.9998 24.9384 26.4135 24.3018 26.68 23.6001C27.043 22.6319 27.2326 21.6074 27.24 20.5734C27.3333 18.8534 27.3333 18.3467 27.3333 14.0001C27.3333 9.65341 27.3333 9.14675 27.24 7.42675ZM23.8533 18.0934C23.8105 18.9162 23.6349 19.7267 23.3333 20.4934C23.0744 21.133 22.6896 21.714 22.2018 22.2019C21.7139 22.6898 21.1329 23.0746 20.4933 23.3334C19.7193 23.6182 18.9043 23.7758 18.08 23.8001C17.0266 23.8001 16.7466 23.8001 14 23.8001C11.2533 23.8001 10.9733 23.8001 9.91996 23.8001C9.0956 23.7758 8.28061 23.6182 7.50663 23.3334C6.84543 23.0877 6.24833 22.6957 5.75996 22.1867C5.27685 21.7084 4.90375 21.1306 4.66663 20.4934C4.3807 19.7202 4.22743 18.9043 4.21329 18.0801C4.21329 17.0267 4.21329 16.7467 4.21329 14.0001C4.21329 11.2534 4.21329 10.9734 4.21329 9.92008C4.22743 9.09585 4.3807 8.27993 4.66663 7.50675C4.91233 6.84555 5.30433 6.24845 5.81329 5.76008C6.29374 5.27958 6.87098 4.90687 7.50663 4.66675C8.28061 4.38196 9.0956 4.22436 9.91996 4.20008C10.9733 4.20008 11.2533 4.20008 14 4.20008C16.7466 4.20008 17.0266 4.20008 18.08 4.20008C18.9043 4.22436 19.7193 4.38196 20.4933 4.66675C21.1545 4.91246 21.7516 5.30445 22.24 5.81342C22.7231 6.29175 23.0962 6.86959 23.3333 7.50675C23.6181 8.28073 23.7757 9.09572 23.8 9.92008C23.8 10.9734 23.8 11.2534 23.8 14.0001C23.8 16.7467 23.8933 17.0267 23.8533 18.0801V18.0934ZM21.72 8.17342C21.5612 7.74273 21.3109 7.3516 20.9863 7.02703C20.6618 6.70246 20.2706 6.45217 19.84 6.29341C19.2486 6.08843 18.6258 5.98914 18 6.00008C16.96 6.00008 16.6666 6.00008 14 6.00008C11.3333 6.00008 11.04 6.00008 9.99996 6.00008C9.37098 6.00623 8.74805 6.12359 8.15996 6.34675C7.73586 6.49829 7.34888 6.73837 7.02474 7.05102C6.70059 7.36367 6.44671 7.74173 6.27996 8.16008C6.08633 8.7539 5.99173 9.37554 5.99996 10.0001C5.99996 11.0401 5.99996 11.3334 5.99996 14.0001C5.99996 16.6667 5.99996 16.9601 5.99996 18.0001C6.01318 18.6283 6.13032 19.2501 6.34663 19.8401C6.50538 20.2708 6.75567 20.6619 7.08024 20.9865C7.40482 21.311 7.79594 21.5613 8.22663 21.7201C8.79552 21.9293 9.39416 22.0463 9.99996 22.0667C11.04 22.0667 11.3333 22.0667 14 22.0667C16.6666 22.0667 16.96 22.0667 18 22.0667C18.6289 22.0606 19.2519 21.9432 19.84 21.7201C20.2706 21.5613 20.6618 21.311 20.9863 20.9865C21.3109 20.6619 21.5612 20.2708 21.72 19.8401C21.9431 19.252 22.0605 18.6291 22.0666 18.0001C22.0666 16.9601 22.0666 16.6667 22.0666 14.0001C22.0666 11.3334 22.0666 11.0401 22.0666 10.0001C22.067 9.37048 21.9494 8.74638 21.72 8.16008V8.17342ZM14 19.0934C13.3317 19.0934 12.67 18.9616 12.0528 18.7055C11.4356 18.4493 10.875 18.0739 10.4031 17.6008C9.93124 17.1277 9.55733 16.5661 9.30282 15.9482C9.04831 15.3303 8.91821 14.6683 8.91996 14.0001C8.91996 12.9921 9.21902 12.0069 9.77928 11.169C10.3395 10.3311 11.1358 9.6783 12.0673 9.29319C12.9987 8.90809 14.0235 8.808 15.0119 9.00561C16.0002 9.20322 16.9078 9.68964 17.6195 10.4033C18.3313 11.1169 18.8154 12.0257 19.0104 13.0146C19.2054 14.0035 19.1026 15.028 18.7151 15.9585C18.3275 16.8889 17.6726 17.6835 16.8333 18.2415C15.9939 18.7996 15.0079 19.0961 14 19.0934ZM19.3333 9.90675C19.0385 9.87555 18.7658 9.73638 18.5675 9.51604C18.3693 9.29571 18.2596 9.0098 18.2596 8.71342C18.2596 8.41703 18.3693 8.13112 18.5675 7.91079C18.7658 7.69045 19.0385 7.55128 19.3333 7.52008C19.628 7.55128 19.9008 7.69045 20.099 7.91079C20.2973 8.13112 20.407 8.41703 20.407 8.71342C20.407 9.0098 20.2973 9.29571 20.099 9.51604C19.9008 9.73638 19.628 9.87555 19.3333 9.90675Z" fill="white"/>
</svg>
