<svg width="25" height="25" viewBox="0 0 25 25" fill="none" xmlns="http://www.w3.org/2000/svg">
<path d="M22.7346 0.416673H2.26539C2.03529 0.413477 1.80682 0.455639 1.59303 0.540749C1.37923 0.62586 1.18429 0.752252 1.01935 0.912708C0.854405 1.07316 0.722684 1.26454 0.631709 1.47591C0.540734 1.68728 0.492288 1.9145 0.489136 2.14459V22.8554C0.492288 23.0855 0.540734 23.3127 0.631709 23.5241C0.722684 23.7355 0.854405 23.9268 1.01935 24.0873C1.18429 24.2478 1.37923 24.3742 1.59303 24.4593C1.80682 24.5444 2.03529 24.5865 2.26539 24.5833H22.7346C22.9646 24.5865 23.1931 24.5444 23.4069 24.4593C23.6207 24.3742 23.8156 24.2478 23.9806 24.0873C24.1455 23.9268 24.2773 23.7355 24.3682 23.5241C24.4592 23.3127 24.5077 23.0855 24.5108 22.8554V2.14459C24.5077 1.9145 24.4592 1.68728 24.3682 1.47591C24.2773 1.26454 24.1455 1.07316 23.9806 0.912708C23.8156 0.752252 23.6207 0.62586 23.4069 0.540749C23.1931 0.455639 22.9646 0.413477 22.7346 0.416673ZM7.77539 20.6442H4.15039V9.76917H7.77539V20.6442ZM5.96289 8.24667C5.46295 8.24667 4.9835 8.04808 4.62999 7.69457C4.27648 7.34106 4.07789 6.86161 4.07789 6.36167C4.07789 5.86174 4.27648 5.38228 4.62999 5.02878C4.9835 4.67527 5.46295 4.47667 5.96289 4.47667C6.22835 4.44657 6.49718 4.47287 6.75178 4.55387C7.00637 4.63486 7.24099 4.76871 7.44026 4.94667C7.63954 5.12462 7.79898 5.34266 7.90815 5.58651C8.01731 5.83035 8.07374 6.09451 8.07374 6.36167C8.07374 6.62884 8.01731 6.89299 7.90815 7.13684C7.79898 7.38069 7.63954 7.59872 7.44026 7.77668C7.24099 7.95463 7.00637 8.08849 6.75178 8.16948C6.49718 8.25047 6.22835 8.27678 5.96289 8.24667ZM20.8496 20.6442H17.2246V14.8079C17.2246 13.3458 16.705 12.3913 15.3879 12.3913C14.9803 12.3942 14.5834 12.5221 14.2506 12.7576C13.9179 12.9931 13.6654 13.3249 13.5271 13.7083C13.4325 13.9923 13.3915 14.2914 13.4062 14.5904V20.6321H9.78122C9.78122 20.6321 9.78122 10.7479 9.78122 9.75709H13.4062V11.2917C13.7355 10.7203 14.2145 10.2495 14.7915 9.93013C15.3685 9.61074 16.0217 9.45483 16.6808 9.47917C19.0975 9.47917 20.8496 11.0379 20.8496 14.385V20.6442Z" fill="white"/>
</svg>
