<svg width="31" height="23" viewBox="0 0 31 23" fill="none" xmlns="http://www.w3.org/2000/svg">
<path d="M30.625 8.35129C30.693 6.38319 30.2626 4.42981 29.3738 2.67254C28.7707 1.95149 27.9338 1.46489 27.0088 1.29754C23.1829 0.950386 19.3411 0.8081 15.5 0.871289C11.6729 0.805232 7.84501 0.942927 4.03254 1.28379C3.27879 1.4209 2.58125 1.77445 2.02504 2.30129C0.787537 3.44254 0.650037 5.39504 0.512537 7.04504C0.313041 10.0117 0.313041 12.9884 0.512537 15.955C0.552316 16.8837 0.690591 17.8056 0.925037 18.705C1.09083 19.3995 1.42626 20.042 1.90129 20.575C2.46128 21.1298 3.17507 21.5034 3.95004 21.6475C6.91442 22.0135 9.90134 22.1651 12.8875 22.1013C17.7 22.17 21.9213 22.1013 26.9125 21.7163C27.7065 21.5811 28.4404 21.2069 29.0163 20.6438C29.4012 20.2587 29.6888 19.7873 29.855 19.2688C30.3468 17.7599 30.5883 16.1807 30.57 14.5938C30.625 13.8238 30.625 9.17629 30.625 8.35129ZM12.3925 15.4188V6.90754L20.5325 11.1838C18.25 12.4488 15.2388 13.8788 12.3925 15.4188Z" fill="white"/>
</svg>
